<svg width="60" height="60" viewBox="0 0 60 60" fill="none" xmlns="http://www.w3.org/2000/svg">
<rect width="60" height="60" rx="10" fill="#EFF0FF"/>
<path d="M29.9999 13.3334C20.8166 13.3334 13.3333 20.8167 13.3333 30C13.3333 39.1834 20.8166 46.6667 29.9999 46.6667C39.1833 46.6667 46.6666 39.1834 46.6666 30C46.6666 20.8167 39.1833 13.3334 29.9999 13.3334ZM37.9666 26.1667L28.5166 35.6167C28.2833 35.85 27.9666 35.9834 27.6333 35.9834C27.2999 35.9834 26.9833 35.85 26.7499 35.6167L22.0333 30.9C21.5499 30.4167 21.5499 29.6167 22.0333 29.1334C22.5166 28.65 23.3166 28.65 23.7999 29.1334L27.6333 32.9667L36.1999 24.4C36.6833 23.9167 37.4833 23.9167 37.9666 24.4C38.4499 24.8834 38.4499 25.6667 37.9666 26.1667Z" fill="#5973C4"/>
</svg>
