<svg width="145" height="144" viewBox="0 0 145 144" fill="none" xmlns="http://www.w3.org/2000/svg">
<rect x="0.5" width="144" height="144" rx="10" fill="#FAF8FF"/>
<path opacity="0.4" d="M92.4465 74.5334H97.8332V70.6934C97.8332 65.1734 93.3265 60.6667 87.8065 60.6667H57.1932C51.6732 60.6667 47.1665 65.1734 47.1665 70.6934V88.64C47.1665 94.16 51.6732 98.6667 57.1932 98.6667H87.8065C93.3265 98.6667 97.8332 94.16 97.8332 88.64V85.4666H92.7665C89.8865 85.4666 87.2465 83.36 87.0065 80.48C86.8465 78.8 87.4865 77.2266 88.6065 76.1333C89.5932 75.12 90.9532 74.5334 92.4465 74.5334ZM58.0998 94.8801C57.6998 95.2534 57.1932 95.4399 56.6865 95.4399C56.1798 95.4399 55.6732 95.2534 55.2732 94.8801L53.8598 93.4666L52.3932 94.9333C51.9932 95.3333 51.4865 95.52 50.9798 95.52C50.4732 95.52 49.9665 95.3333 49.5665 94.9333C48.7932 94.1599 48.7932 92.8799 49.5665 92.1066L51.0332 90.64L49.6198 89.2267C48.8465 88.4534 48.8465 87.1734 49.6198 86.4001C50.4198 85.6267 51.6732 85.6267 52.4732 86.4001L53.8598 87.8133L55.1932 86.4533C55.9932 85.68 57.2465 85.68 58.0465 86.4533C58.8198 87.2533 58.8198 88.5066 58.0465 89.3066L56.6865 90.64L58.0998 92.0267C58.8732 92.8267 58.8732 94.0801 58.0998 94.8801Z" fill="#B4C5FF"/>
<path d="M80.0998 50.5333V60.6666H57.1932C51.6732 60.6666 47.1665 65.1733 47.1665 70.6933V60.9067C47.1665 57.7334 49.1132 54.9066 52.0732 53.7866L73.2465 45.7866C76.5532 44.5599 80.0998 46.9867 80.0998 50.5333Z" fill="#5973C4"/>
<path d="M100.66 77.2533V82.7467C100.66 84.2134 99.4867 85.4133 97.9934 85.4666H92.7668C89.8868 85.4666 87.2468 83.36 87.0068 80.48C86.8468 78.8 87.4868 77.2266 88.6068 76.1333C89.5934 75.12 90.9534 74.5334 92.4468 74.5334H97.9934C99.4867 74.5867 100.66 75.7866 100.66 77.2533Z" fill="#5973C4"/>
<path d="M77.8332 74H59.1665C58.0732 74 57.1665 73.0933 57.1665 72C57.1665 70.9067 58.0732 70 59.1665 70H77.8332C78.9265 70 79.8332 70.9067 79.8332 72C79.8332 73.0933 78.9265 74 77.8332 74Z" fill="#5973C4"/>
<path d="M53.8332 80C51.3265 80 49.0065 80.88 47.1665 82.3467C44.7132 84.2933 43.1665 87.3067 43.1665 90.6667C43.1665 92.6667 43.7265 94.56 44.7132 96.16C46.5532 99.2533 49.9398 101.333 53.8332 101.333C56.5265 101.333 58.9798 100.347 60.8465 98.6667C61.6732 97.9733 62.3932 97.12 62.9532 96.16C63.9398 94.56 64.4998 92.6667 64.4998 90.6667C64.4998 84.7733 59.7265 80 53.8332 80ZM49.6198 89.2267C48.8465 88.4534 48.8465 87.1734 49.6198 86.4001C50.4198 85.6267 51.6732 85.6267 52.4732 86.4001L53.8598 87.8133L55.1932 86.4533C55.9932 85.68 57.2465 85.68 58.0465 86.4533C58.8198 87.2533 58.8198 88.5066 58.0465 89.3066L56.6865 90.64L58.0998 92.0267C58.8732 92.8267 58.8732 94.08 58.0998 94.88C57.6998 95.2534 57.1932 95.4399 56.6865 95.4399C56.1798 95.4399 55.6732 95.2534 55.2732 94.88L53.8598 93.4666L52.3932 94.9333C51.9932 95.3333 51.4865 95.52 50.9798 95.52C50.4732 95.52 49.9665 95.3333 49.5665 94.9333C48.7932 94.1599 48.7932 92.8799 49.5665 92.1066L51.0332 90.64L49.6198 89.2267Z" fill="#DE3730"/>
</svg>
