<svg width="145" height="144" viewBox="0 0 145 144" fill="none" xmlns="http://www.w3.org/2000/svg">
<rect x="0.5" width="144" height="144" rx="10" fill="#FAF8FF"/>
<path d="M53.8334 80C51.3267 80 49.0067 80.88 47.1667 82.3467C44.7134 84.2933 43.1667 87.3067 43.1667 90.6667C43.1667 92.6667 43.7268 94.56 44.7134 96.16C46.5534 99.2533 49.9401 101.333 53.8334 101.333C56.5267 101.333 58.9801 100.347 60.8468 98.6667C61.6734 97.9733 62.3934 97.12 62.9534 96.16C63.9401 94.56 64.5001 92.6667 64.5001 90.6667C64.5001 84.7733 59.7267 80 53.8334 80ZM59.3534 89.52L53.6734 94.7733C53.3001 95.1199 52.7934 95.3066 52.3134 95.3066C51.8067 95.3066 51.3001 95.1201 50.9001 94.7201L48.2601 92.0801C47.4868 91.3067 47.4868 90.0266 48.2601 89.2533C49.0334 88.4799 50.3134 88.4799 51.0868 89.2533L52.3667 90.5334L56.6334 86.5866C57.4334 85.8399 58.7134 85.8934 59.4601 86.6934C60.2067 87.4934 60.1534 88.7734 59.3534 89.52Z" fill="#29E425"/>
<path opacity="0.4" d="M92.4467 74.5334H97.8334V70.6934C97.8334 65.1734 93.3268 60.6667 87.8068 60.6667H57.1934C51.6734 60.6667 47.1667 65.1734 47.1667 70.6934V82.3467C49.0067 80.88 51.3267 80 53.8334 80C59.7267 80 64.5001 84.7733 64.5001 90.6667C64.5001 92.6667 63.9401 94.56 62.9534 96.16C62.3934 97.12 61.6734 97.9733 60.8468 98.6667H87.8068C93.3268 98.6667 97.8334 94.16 97.8334 88.64V85.4666H92.7668C89.8868 85.4666 87.2468 83.36 87.0068 80.48C86.8468 78.8 87.4867 77.2266 88.6067 76.1333C89.5934 75.12 90.9534 74.5334 92.4467 74.5334Z" fill="#B4C5FF"/>
<path d="M80.1001 50.5333V60.6666H57.1934C51.6734 60.6666 47.1667 65.1733 47.1667 70.6933V60.9067C47.1667 57.7334 49.1134 54.9066 52.0734 53.7866L73.2467 45.7866C76.5534 44.5599 80.1001 46.9867 80.1001 50.5333Z" fill="#5973C4"/>
<path d="M100.66 77.2532V82.7467C100.66 84.2134 99.4867 85.4133 97.9934 85.4666H92.7668C89.8868 85.4666 87.2468 83.36 87.0068 80.48C86.8468 78.8 87.4867 77.2266 88.6067 76.1333C89.5934 75.12 90.9534 74.5334 92.4467 74.5334H97.9934C99.4867 74.5867 100.66 75.7866 100.66 77.2532Z" fill="#5973C4"/>
<path d="M77.8334 74H59.1667C58.0734 74 57.1667 73.0933 57.1667 72C57.1667 70.9067 58.0734 70 59.1667 70H77.8334C78.9267 70 79.8334 70.9067 79.8334 72C79.8334 73.0933 78.9267 74 77.8334 74Z" fill="#5973C4"/>
</svg>
